<?xml version="1.0" standalone="no"?>
<!DOCTYPE svg PUBLIC "-//W3C//DTD SVG 20010904//EN"
 "http://www.w3.org/TR/2001/REC-SVG-20010904/DTD/svg10.dtd">
<svg version="1.0" xmlns="http://www.w3.org/2000/svg"
 width="734.000000pt" height="156.000000pt" viewBox="0 0 734.000000 156.000000"
 preserveAspectRatio="xMidYMid meet">

<g transform="translate(0.000000,156.000000) scale(0.100000,-0.100000)"
fill="#000000" stroke="none">
<path d="M3110 1173 c0 -208 -4 -384 -9 -391 -7 -12 -47 93 -232 611 l-52 147
-124 0 -123 0 0 -600 0 -600 28 0 c16 0 63 3 105 6 l77 7 0 361 c0 199 4 367
8 374 5 8 62 -123 152 -353 79 -202 147 -368 151 -371 4 -2 58 -1 118 2 l111
7 0 589 0 588 -105 0 -105 0 0 -377z"/>
<path d="M3500 1546 c0 -3 68 -159 150 -347 l150 -341 0 -244 0 -244 110 0
110 0 0 248 0 247 145 330 c80 181 145 335 145 343 0 10 -25 12 -111 10 l-111
-3 -82 -205 c-45 -113 -86 -214 -90 -225 l-8 -20 -8 20 c-5 11 -44 112 -88
225 l-79 205 -117 3 c-64 1 -116 0 -116 -2z"/>
<path d="M2100 1128 c0 -233 -4 -408 -9 -403 -7 8 -193 542 -258 740 l-20 60
-120 3 -120 3 -6 -103 c-3 -57 -6 -345 -6 -641 -1 -510 0 -538 16 -534 10 3
54 8 98 12 44 4 86 12 93 17 9 8 12 101 12 402 0 229 4 385 9 376 5 -8 59
-148 120 -310 143 -383 168 -445 172 -444 2 1 54 4 115 8 l111 7 6 367 c4 202
7 476 7 610 l0 242 -110 0 -110 0 0 -412z"/>
<path d="M4492 950 c3 -325 7 -592 9 -594 2 -2 53 -6 112 -9 l108 -5 -2 252
-1 251 156 -4 156 -3 0 86 0 86 -99 0 c-54 0 -126 3 -160 6 l-61 7 2 176 3
176 203 -4 202 -3 0 86 0 86 -316 0 -317 0 5 -590z"/>
<path d="M5307 1534 c-4 -4 -7 -283 -7 -621 0 -484 3 -613 13 -613 6 0 120
-12 252 -25 132 -14 269 -28 304 -32 l64 -6 -6 48 c-4 26 -7 67 -7 90 l0 42
-142 12 c-79 7 -168 16 -198 20 l-55 6 -3 538 -2 537 -89 0 c-49 0 -96 2 -103
5 -8 3 -17 2 -21 -1z"/>
<path d="M894 1513 l-151 -4 -6 -382 c-4 -210 -7 -519 -7 -686 l0 -303 28 5
c15 3 146 22 292 42 146 20 275 39 287 41 20 4 22 11 25 85 2 45 1 85 -2 89
-4 7 -222 -14 -367 -36 l-43 -6 0 199 0 200 53 6 c28 3 88 9 132 12 44 3 95 8
113 11 l32 5 0 91 0 91 -47 -6 c-27 -3 -101 -9 -165 -13 l-118 -7 0 64 c0 35
3 121 7 190 l6 127 203 7 204 7 0 89 0 89 -162 -2 c-90 -1 -231 -4 -314 -5z"/>
<path d="M6100 911 c0 -334 3 -629 6 -654 l6 -45 87 -12 c47 -7 94 -13 104
-13 16 -2 17 34 17 657 0 513 -3 662 -13 668 -6 4 -56 8 -109 8 l-98 0 0 -609z"/>
<path d="M6523 1494 c3 -10 65 -164 137 -341 l133 -322 -61 -143 c-34 -79 -99
-230 -146 -336 -53 -123 -80 -195 -73 -197 29 -9 210 -35 214 -31 3 2 43 102
89 222 82 212 91 232 97 223 4 -5 96 -254 147 -400 l41 -116 112 -21 c61 -12
113 -20 115 -17 5 4 -64 196 -193 543 l-87 234 136 340 c75 187 134 343 131
347 -4 3 -54 7 -113 9 l-107 4 -80 -221 c-43 -122 -82 -221 -85 -221 -3 0 -43
100 -90 221 -46 121 -87 222 -91 224 -3 3 -57 8 -119 11 -108 7 -113 6 -107
-12z"/>
<path d="M303 1493 l-32 -4 -3 -582 c-3 -560 -4 -583 -23 -615 -26 -43 -104
-82 -166 -82 l-46 0 -15 -97 c-9 -54 -12 -102 -7 -107 18 -20 178 15 260 56
91 45 137 93 183 188 l31 65 3 593 3 592 -78 -2 c-43 0 -92 -3 -110 -5z"/>
</g>
</svg>
