<svg xmlns="http://www.w3.org/2000/svg" viewBox="0 0 512.001 512.001" fill="#fff"><path d="M439.89 78.181C391.216 27.77 325.88 0 255.921 0c-6.011 0-10.89 4.879-10.89 10.89s4.879 10.89 10.89 10.89c63.997 0 123.762 25.402 168.298 71.538 44.721 46.316 68.108 107.411 65.848 171.99-4.688 121.35-103.419 220.081-224.731 224.764-64.617 2.238-125.712-21.122-172.028-65.843-46.126-44.541-71.527-104.312-71.527-168.309 0-66.883 26.316-115.339 48.462-144.296 2.75-3.665 6.883-5.87 11.647-6.207 4.797-.359 9.48 1.35 12.78 4.65l235.23 235.23c4.253 4.253 11.146 4.253 15.399 0 4.253-4.253 4.253-11.146 0-15.399l-235.23-235.23c-7.765-7.77-18.557-11.729-29.725-10.977-10.994.784-21.024 6.197-27.465 14.784C28.756 130.019 0 182.946 0 255.921c0 69.959 27.765 135.295 78.181 183.975 48.369 46.703 111.456 72.11 178.6 72.104 3.109 0 6.235-.054 9.36-.163 132.643-5.124 240.566-113.046 245.695-245.728 2.473-70.58-23.076-137.32-71.946-187.928z"/></svg>